<?xml version="1.0" encoding="UTF-8"?>
<svg id="Capa_3" data-name="Capa 3" xmlns="http://www.w3.org/2000/svg" viewBox="0 0 598.11 598.11">
  <path d="M388.59,295.09c-.82-.74-3.01-1.06-4.11-1.06-6.38-1.17-10.87-2.12-16.02-5.29-3.89-2.4-6.4-5.55-8.01-9.41-2.2-5.29-4.01-12.02-5.44-20.18-.1-.57-.33-.99-.67-1.28-.48-.39-1.21-.14-1.4.47-.45,1.5-.84,3.23-1.18,5.18-.88,4.97-2.23,9.71-4.04,14.22-2.19,5.48-5.33,9.59-10.16,12.05-3.24,1.65-6.75,2.8-10.51,3.46-4.39.77-6.69,1.19-6.89,1.27-.94.37-1.44.79-1.47,1.28-.04.65.47,1.25,1.21,1.4,3.39.66,6.51,1.35,9.34,2.06,2.51.31,4.87,1.28,7.05,2.9l4.05,2.42c.17.1.33.23.46.37l3.73,4c-.11.14-.04.25.18.33.08.08.17.14.28.2,3.77,6.69,5.86,14.06,7.23,21.88.17.97.45,1.76.84,2.39.47.76,1.62.56,1.82-.31,1.44-6.41,2.59-11.29,3.43-14.6.93-3.65,2.71-7.25,5.34-10.8,3.82-5.14,11.09-8.01,17.14-9.37,4.1-.92,6.74-1.56,7.93-1.93.17-.3.24-.64.2-1.04-.03-.23-.13-.44-.3-.59Z"/>
  <path d="M233.15,359.05c-.42-.38-1.55-.55-2.12-.55-3.3-.6-5.62-1.1-8.28-2.74-2.01-1.24-3.31-2.87-4.14-4.86-1.14-2.74-2.07-6.21-2.81-10.43-.05-.3-.17-.51-.35-.66-.25-.2-.63-.07-.72.24-.23.78-.43,1.67-.61,2.68-.46,2.57-1.15,5.02-2.08,7.35-1.13,2.83-2.75,4.96-5.25,6.22-1.68.85-3.49,1.45-5.43,1.79-2.27.4-3.46.61-3.56.66-.49.19-.74.41-.76.66-.02.34.24.65.62.72,1.75.34,3.36.7,4.82,1.07,1.3.16,2.51.66,3.64,1.5l2.09,1.25c.09.05.17.12.24.19l1.93,2.07c-.06.07-.02.13.09.17.04.04.09.07.14.1,1.95,3.45,3.03,7.27,3.73,11.3.09.5.23.91.43,1.23.24.39.84.29.94-.16.74-3.31,1.34-5.83,1.77-7.55.48-1.89,1.4-3.75,2.76-5.58,1.97-2.66,5.73-4.14,8.86-4.84,2.12-.47,3.48-.81,4.09-1,.09-.15.12-.33.1-.54-.01-.12-.07-.23-.16-.31Z"/>
  <g>
    <path d="M218.18,214.11c4.53.11,8.79.22,12.36,1.74,4.87,2.07,8.58,5.84,11.68,10.27,1.35,1.93,2.18,3.33,2.48,4.18.84,2.38,1.71,4.73,2.6,7.06.18.83.54,1.46,1.07,1.89.77.63,1.54.49,2.29-.42.72-2.08,1.39-4.17,2-6.28.47-1.61.98-2.96,1.51-4.04.9-1.81,1.55-3.08,1.96-3.84,1.2-2.24,2.27-3.79,3.21-4.65,1.83-1.67,3.78-3,5.87-4,1.52-.73,3.35-1.23,5.51-1.49,2.22-.27,4.14-.49,5.74-.65.55-.05,1.01-.44,1.15-.98.48-1.81.29-3.3-.59-4.49-.46-.04-.78-.04-.98,0l-43.76-.13h-13.92c-1.2-.01-2.18.93-2.23,2.12l-.07,1.44c-.06,1.22.9,2.25,2.12,2.28Z"/>
    <path d="M401.44,405.32c-.54-.9-1.2-1.35-1.97-1.37-7.87-.14-14.99-1.79-21.37-4.92-5.41-2.66-10.05-6.62-14.3-11.27-5.65-6.2-11.22-12.47-16.72-18.81-5.09-5.74-10.17-11.49-15.26-17.24-3.17-3.59-6.53-7.7-10.27-11.6-1.76-1.85-3.51-4.1-5.17-5.98-10.66-12-20.09-22.61-28.27-31.83-.75-.84-1.13-1.81-1.16-2.91,0-.3.1-.59.3-.81l10.98-11.95c.08-.08.13-.18.16-.28.02-.08.04-.15.04-.21.04-.21.14-.4.3-.55,2.54-2.29,4.56-4.34,6.09-6.16,1.7-2.04,2.73-3.23,3.09-3.57.14-.13.26-.28.36-.45.38-.67,1.08-1.4,2.08-2.18.11-.09.21-.19.3-.3,1.33-1.74,2.4-2.98,3.19-3.73,1.58-1.49,2.69-2.68,3.34-3.59.64-.9,2.17-2.56,4.58-4.97,1.27-1.27,2.8-2.92,4.59-4.96,5.46-6.19,11.16-12.49,17.1-18.88.66-.71,1.15-1.22,1.44-1.54,4.15-4.38,6.96-7.28,8.44-8.74,2.41-2.37,4.65-4.27,6.71-5.68,4.72-3.24,10.12-5.35,15.98-6.22,1.77-.26,3.38-.48,4.82-.66.72-.09,1.3-.66,1.4-1.38.14-1.1.08-2.2-.19-3.32-.14-.59-.67-1.01-1.28-1.01h-1.95s-9.17.02-9.17.02l-49.74.08c-1.68,0-2.52.78-2.54,2.32-.02,1.73-.25,3.15,1.82,3.29,4.78.33,14.49,1.16,15.19,7.39.4,3.54-.42,6.9-2.48,10.07-.81,1.25-1.35,2.22-1.63,2.91-.35.85-.87,1.54-1.57,2.06-.12.08-.22.18-.31.3l-1.44,1.81c-3.48,4.51-5.83,7.43-7.04,8.76-1.37,1.52-2.44,2.73-3.2,3.63-1.69,1.99-2.74,3.22-3.15,3.68-4.98,5.55-7.59,8.5-7.85,8.88-.5.73-1.6,1.93-3.3,3.61-.72.71-1.78,1.98-3.19,3.83,0,0-.01.01-.02.02l-7.54,8.13s-.06.08-.08.12c-1.16,2.09-3.47,3.99-5.04,5.81-2.25,2.6-4.22,4.44-6.3,7.14-.53.69-1.58,1.89-3.15,3.61-.18.2-.51.08-.52-.19-.13-2.93-.33-5.6-1.06-8.6-.62-2.52-1.23-5.03-1.82-7.54-.04-.18-.12-.34-.23-.48l-.57-.75c-.43-.38-.83-.36-1.2.06-4.19,4.72-7.74,10.43-10.68,17.14-1.91,4.35-2.87,9.25-2.88,14.69-.17.21-.31.31-.43.32-.06,0-.13-.05-.2-.16-.07-.13-.14-.18-.2-.14-.28-5.19-.62-10.38-1.01-15.56-.2-2.58,0-4.58.85-6.77,1.62-4.22,3.82-8.54,6.6-12.93.45-.72.98-1.35,1.56-1.9.14-.14.35-.19.54-.14,4.43,1.01,8.3-3.43,6.56-7.65-1.35-3.26-5.22-3.78-7.93-2.07-1.58,1-2.47,2.74-2.65,5.21,0,.11.17.64.54,1.58.11.3.08.63-.09.89l-2.32,3.51c-.16.25-.54.1-.5-.19.25-2.06.45-3.3.61-3.73,1.25-3.41,1.63-4.76,3-8.28,3.33-8.6,1.26-18.41-2.09-26.76-1.32-3.29-2.14-5.26-2.46-5.9-.23-.45-.78-.64-1.23-.4-.3.16-.6.48-.93.97-3,4.54-5.44,10.29-6.52,16.56-.78,4.51-.6,8.57.55,12.15,1.22,3.8,2.83,7.13,4.81,10.02.17.24.28.52.33.81.11.75.16,1.43.13,2.05-.17,3.7-.52,6.73-1.07,9.1-.06.29-.18.54-.35.76-.15.19-.45.11-.49-.13-1.06-6.41-2.81-12.37-5.26-17.88-.43-.97-.64-2.03-.59-3.08.08-1.95.13-4.02.16-6.23.11-7.86-2.02-14.72-6.37-20.58-3.21-4.32-6.85-7.91-10.92-10.77-.52-.36-1.22-.24-1.59.26-.74,1.02-1.01,3.43-1.23,5.58-.08.84-.13,2.49-.14,4.97-.04,5.7.98,10.94,3.05,15.73.86,2,2.59,4.48,5.19,7.42,1.05,1.18,2.08,2.14,3.1,2.87,1.64,1.17,4.63,3.22,5.33,5.08,2.84,7.46,4.59,13.28,5.26,17.45,1.23,7.65,2.03,15.01,2.39,22.06,0,.03-.01.04-.04.05-.02,0-.04-.01-.05-.03-2.69-7.48-6.74-15.23-10.68-22.59-.67-1.24-1.3-2.34-1.91-3.3-1.46-2.31-2.32-3.26-2.87-5.02-.09-.28-.12-.59-.08-.88.38-3.08.69-5.66-2.44-7.15-2.78-1.33-6.17-.89-7.58,2-1.12,2.31-.85,5.28,1.34,6.96,1.43,1.11,3.13,1.47,5.1,1.08.32-.06.65.08.82.35,2.86,4.39,5.59,9.22,8.19,14.5,1.68,3.43,3.34,7.46,4.95,12.1,1.9,5.46,3.23,9.6,3.98,12.43.5,1.9.83,4.65.98,8.28.35,8.8-.48,17.47-1.23,26.19l-2.92-15.51c-.03-.2-.04-.39-.03-.59.57-6.96-.09-13.96-1.99-20.98-1.05-3.9-3.37-8.25-5.3-11.46-2.27-3.77-5.5-8.44-9.69-13.99-.47-.64-1.03-1.18-1.67-1.66-.28-.21-.69-.09-.8.24-3.57,9.94-3.55,19.83.06,29.66.12.33.18.58.19.75.01.45.32.86.53.87,1.28,3.24,2.58,5.66,3.88,7.24,1.65,1.99,2.64,3.29,2.99,3.91.06.1.12.2.2.28l6.25,6.9c.14.15.25.31.34.5.9,1.81,1.6,4.1,2.11,6.87,1.69,9.16,2.87,18.32,2.06,27.59-.56,6.44-1.47,11.94-2.75,16.5-1.08,3.83-2.61,7.01-4.6,9.54-4.98,6.3-11.94,7.81-19.78,8.35-.47.03-1.22.16-2.22.4-.65.15-1.11.71-1.15,1.37l-.14,2.8c-.03.74.55,1.36,1.29,1.37l7.78.11,55.68-.09c.99,0,1.8-.78,1.84-1.76l.09-1.95c.05-.99-.71-1.83-1.71-1.89-3.94-.21-7.57-.77-10.89-1.69-6.74-1.84-11.27-7.64-13.23-14.19-1.3-4.37-2.19-8.82-2.66-13.35-.84-9.58-.32-16.8,1.79-25.79,1.52-6.45,4.03-13.5,6.01-19.56,1.69-5.17,5.04-8.54,8.73-12.9.11-.13.31-.13.42,0l2.01,2.42c11.44,13.1,22.93,26.14,34.47,39.14,3.32,3.73,6.74,7.5,10.24,11.31,1.51,1.64,2.42,3.07,3.79,4.48,1.02,1.05,2,2.13,2.95,3.23,3.73,4.35,7.62,8.79,11.65,13.31.23.26.52.58.86.97,2.37,2.69,4.45,4.95,6.25,6.76,2.58,2.6,4.9,4.56,6.94,5.87,6.01,3.85,12.62,5.79,19.81,5.8,6.01.02,15.15-.05,27.4-.21,1.25-.02,2.06-.06,2.41-.11.77-.12,1.33-.77,1.35-1.55l.05-2.79c0-.12-.03-.24-.09-.34Z"/>
  </g>
  <g>
    <path d="M271.25,124.25c.48.81,1.69.7,2.02-.18.02-.04,1.13-3.12,3.34-9.22.26-.7.41-1.57.47-2.61.01-.22-.04-.44-.16-.63-1.92-3.12-3.65-6.48-5.18-10.09-.21-.48-.54-.86-.98-1.15-.6-.38-1.39-.08-1.6.59-.59,1.88-1.68,5.18-3.29,9.9-.93,2.73-.86,3.94.81,6.29,1.31,1.84,2.83,4.21,4.58,7.09Z"/>
    <path d="M320.45,123.75c.16.43.35.78.57,1.04.33.4.95.36,1.23-.08,1.03-1.59,2.56-4.04,4.58-7.34.99-1.61,1.56-3.13,1.72-4.56.02-.18,0-.37-.04-.55-.98-3.58-2.09-7.34-3.34-11.29-.13-.42-.38-.62-.76-.61-.19,0-.25.07-.17.2l-.46.03c.03-.17-.03-.25-.2-.24-.32.02-.57.2-.74.54-1.91,3.76-3.75,7.16-5.5,10.22-.5.87-.85,2.11-.55,2.9,1.22,3.19,2.44,6.43,3.66,9.73Z"/>
    <path d="M201.46,122.03l17.24,44.55c.45,1.15,1.91,1.49,2.81.65l1.3-1.2c.87-.81,1.2-2.03.85-3.17-.93-2.97-2.47-9-4.64-18.08-.04-.17-.03-.31.03-.43.05-.11.2-.13.28-.04,2.77,2.71,6.07,5.08,9.89,7.11,5,2.67,13.19,3.08,16.6-2.38,1.84-2.95,3.15-6.11,3.92-9.48,1-4.38,1.51-8.6,1.54-12.66,0-.11.15-.15.21-.05,3.29,6.02,7.75,11.14,13.37,15.34,1.36,1.02,3.32,1.76,5.87,2.21,1.62.49,3.22.47,4.79-.05,4.28-1.02,6.26-2.98,9.18-6.37,1.12-1.3,2.11-2.66,2.97-4.09,1.83-3.03,3.43-6.37,4.8-10.04.26-.68.38-1.03.39-1.04,2.05-5.3,3.09-7.99,3.13-8.08.38-.82.62-1.89.74-3.22,0-.09.08-.16.18-.17.09,0,.17.06.19.15.52,2.64,1.3,4.94,2.37,6.91.06.12.11.24.15.37,1.38,4.68,2.32,7.4,2.81,8.16.88,1.35,1.65,2.7,2.32,4.04,1.01,2.02,1.76,3.38,2.26,4.09,1.62,2.3,4.36,5.83,7.15,7.42,5.04,2.85,10.23,2.64,15.57-.65,1.96-1.21,4.27-3.46,6.91-6.72l5.41-8c.11-.17.38-.09.38.12-.02,4.66.65,9.26,1.99,13.79.16.52.39,1.12.71,1.79.26.55.41,1.17.44,1.84,0,.21.07.43.18.62,1.01,1.8,1.62,2.85,1.81,3.14,1.96,2.91,4.59,4.53,7.89,4.83,3.03.28,5.68-.17,7.97-1.33,3.33-1.71,6.95-4.43,10.87-8.16.21-.2.37-.31.5-.31.14-.01.26.12.22.26l-5.24,19.48c-.31,1.18.16,2.42,1.17,3.09l1.32.88c.95.63,2.24.21,2.64-.86l18.65-49.11,2.13-6.36c.05-.16.05-.33,0-.48-.27-.78-.84-1.1-1.71-.94-.65.45-1.05.81-1.21,1.05-4.89,7.4-10.35,14.32-16.4,20.74-4.24,4.49-13.33,12.41-20.03,9.08-1.83-.91-3.01-2.29-3.54-4.12-1.54-5.24-2.04-10.79-1.5-16.64,1.04-11.25,2.3-21.16,3.79-29.74.25-1.38-.11-2.25-1.04-2.6-.62-.23-1.32.08-1.59.7-3.91,9.13-7.92,17.75-12.04,25.85-1.16,2.29-2.59,4.18-4.21,6.87-3.72,6.15-10.51,13.15-18.43,9.61-3.51-1.57-5.63-5.03-7.85-8.61-.85-1.37-1.8-3.92-2.86-7.67-.26-.93-1.06-3.55-2.39-7.88-1.2-3.92-2.4-10.16-3.58-18.73-.03-.23-.01-.47.05-.7.41-1.49.8-2.61,1.18-3.36,1.86-3.6,3.62-7.23,5.27-10.9.22-.5.25-1.06.08-1.58-4.1-12.16-7.19-21.6-9.27-28.32-.24-.77-.54-1.3-.89-1.61-.54-.47-1.38-.25-1.61.43-2.25,6.65-4.71,14.32-7.36,23.02-.72,2.36-1.41,4.4-2.07,6.12-.42,1.08-.45,1.96-.1,2.65,1.68,3.3,3.1,6.12,4.26,8.46,1.42,2.85,2.47,4.64,1.96,7.59-1.04,6.04-1.88,10.46-2.51,13.26-.85,3.74-2.22,8.18-4.09,13.33-.99,2.71-1.98,4.93-3,6.67-1.69,2.9-4.38,7.08-7.35,8.07-3.74,1.25-7.16.74-10.26-1.54-3.22-2.37-5.82-5.16-7.82-8.36-3.17-5.07-5.16-9.3-7.65-14.37-2.2-4.48-4.44-10.09-6.84-15.06-.45-1.35-1.03-2.43-1.77-3.22-.49-.53-1.38-.23-1.45.48-.11,1.09-.11,2.13,0,3.12.44,4.05,1.06,9.93,1.85,17.63.18,1.79.32,3.56.41,5.29-.17,2.17-.03,4.29.42,6.37.71,5.91-.13,11.54-2.54,16.88-.08.18-.19.35-.31.51-.86,1.11-1.73,1.83-2.6,2.15-3.37,1.27-6.61.96-9.71-.92-4.43-2.68-8.17-5.64-11.24-8.89-4.98-5.28-10.34-12.08-16.08-20.41-.4-.43-.81-.75-1.26-.94-.19-.08-.4-.08-.59.01-.8.41-1.1.97-.91,1.68.65,2.43,2.05,6.16,4.18,11.19Z"/>
    <path d="M231.2,135.36c.54.47,1.35.44,1.85-.07.06-.06.09-.2.11-.42.2-1.84.23-5.02.11-9.54-.02-.86-.39-1.67-1.03-2.25-2.13-1.96-4.27-4.07-6.4-6.35-.33-.35-.87-.4-1.22-.11-.21.17-.32.39-.35.67-.26,2.44-.48,5.69-.69,9.74-.05,1.01.37,1.98,1.12,2.64l6.49,5.68Z"/>
    <path d="M361.61,135.67c2.35-2.19,4.64-4.48,6.85-6.88.62-.67.94-1.41.95-2.22.03-2.26,0-5.25-.08-8.96-.01-.6-.45-1.09-1.03-1.15-.35-.03-.72.14-1.13.51-2.78,2.59-5.15,5.2-7.1,7.84.11,3.5.2,6.72.26,9.65.01.68.44,1.08,1.28,1.21Z"/>
    <path d="M144.01,280.65c.11.24.45.25.57,0,1.19-2.53,1.72-5.14,2.51-7.52,2.28-6.79,3.37-10.56,5.83-15.93,2.51-5.46,4.05-8.77,4.65-9.93,9-17.61,20.91-32.91,35.74-45.9.16-.08.27-.2.35-.37,5.26-4.55,10.06-8.32,14.41-11.33,3.03-2.1,7.3-4.78,12.82-8.05,1.86-1.1,3.78-2.14,5.77-3.12,3.2-1.58,5.16-2.55,5.9-2.9,3.53-1.71,8.15-3.6,13.85-5.66,1.43-.52,5.59-1.79,12.47-3.8,4.3-1.25,8.54-2.2,12.71-2.83,6.72-1.01,12.1-1.67,16.13-1.96,13.43-.97,26.97-.1,40.62,2.6,0,.06.08.11.27.14.18.06.36.07.54.02,10.2,2.57,17.12,4.58,20.74,6.03,4.41,1.76,9.71,3.77,13.73,5.93,3.07,1.64,5.85,2.7,8.96,4.58,8,4.84,12.69,7.77,14.06,8.79,5.99,4.46,10.75,8.23,14.28,11.33,2.01,1.75,5.09,4.67,9.24,8.77,1.43,1.41,2.49,2.93,4.04,4.45.53.52,1.5,1.66,2.91,3.43,3.66,4.56,6.87,8.44,9.27,12.55,2.01,3.44,3.35,5.21,5.63,8.86.17.27.59.18.63-.14.29-2.42.45-5.28.76-8.16.14-1.3-.04-2.38-.55-3.25-1.04-1.78-2.92-4.34-5.65-7.66-3.44-4.73-7.2-9.17-11.29-13.3-22.17-23.37-50.43-40.25-81.76-47.71-40.57-9.67-83.42-1.98-119.21,18.93l-5.82,3.64-10.7,7.5c-11.14,8.45-21.07,18.13-29.81,29.04-10.02,12.5-17.92,26.26-23.72,41.27-1.37,3.54-2.56,7.17-3.58,10.88-.06.21-.07.43-.05.65.33,3.55,1.25,6.92,2.74,10.12Z"/>
    <path d="M360.85,182.12c3.59,1.73,6.77,3.49,9.54,5.28,4.85,3.13,7.87,5.12,9.06,5.99,11.25,8.15,22.12,18.36,30.88,29.71,3.13,4.05,5.05,6.57,5.75,7.57,4.99,7.06,9.48,14.76,13.47,23.12,2,4.2,3.89,9.55,5.91,14.3.33,1.28,1.11,2.09,2.37,2.44l.55.55c.14.14.37.03.35-.17-.16-1.3-.43-2.55-.79-3.73-3.41-11.13-8.38-21.73-14.92-31.8-6.38-9.83-13.47-18.78-21.25-26.89-7.9-8.22-16.86-15.61-26.87-22.17-6.89-4.51-13.21-7.96-18.97-10.32-6.96-2.86-12.34-4.89-16.15-6.07-5.28-1.64-10.63-2.89-16.05-3.75-5.09-.81-7.64-1.37-11.57-1.67-1.27-.09-5.05-.38-11.33-.86-2.41-.18-5.68-.03-9.82.45l-.74.04c-1.2.08-2.46,0-3.59.15-4.74.58-8.9,1.13-12.48,1.67-9.22,1.37-19.31,4.22-30.3,8.56-8.71,3.44-16.51,7.45-23.41,12.02-7.84,5.2-13.13,9.03-15.88,11.48-2.29,2.05-4.59,4.09-6.9,6.13l-6.63,6.62c-7.24,7.38-13.43,15.77-19.01,24.31-2.42,3.71-4.79,8.1-6.92,12.23-6.83,13.28-11.21,27.4-13.14,42.37-.08.59-.08,1.13,0,1.63.04.26.36.37.54.18.03-.03.09-.24.18-.62.06-.24.26-.42.51-.43.54-.03.96-.23,1.28-.58.15-.17.25-.38.3-.6,1-5.76,2-10.49,2.98-14.2,2.44-9.22,5.87-18.12,10.27-26.69,7.04-13.7,16.1-26.32,26.99-37.19,3.49-3.48,5.79-5.7,6.89-6.66,8.5-7.43,17.65-13.92,27.41-19.47,3.14-1.79,5.77-2.86,9.32-4.64.79-.4,3.08-1.37,6.87-2.91,7.51-3.05,14.43-5.02,23.82-7.21,8.71-2.03,18.18-2.98,28.42-2.83,17.09-.35,32.34,2.76,47.43,7.93,3.78,1.3,9,3.56,15.65,6.77Z"/>
    <path d="M448.33,276.92c.11.14.35.06.35-.13-.14-3.5-.96-7.52-2.48-12.07-.25-.74-.81-1.33-1.54-1.62l-1.23-.47c-.4-.16-.81.22-.69.63l2.98,10.15c.06.23.17.43.31.62l2.3,2.89Z"/>
    <path d="M490.26,341.4c-9.21-.85-17.24,1.5-24.07,7.06-3.8,3.09-6.06,7.08-7.81,11.82-.28.76-.86,1.66-1.51,2.08-.13.08-.3-.03-.26-.18.38-1.84,1.44-3.76,2.03-5.85,1.6-5.61,2.74-9.9,3.44-12.89,1.14-4.89,2.65-7.94,5.74-11.34.14-.16.33-.26.54-.29,3.78-.48,6.88-1.52,9.3-3.12,6.16-4.05,10.2-9.61,12.12-16.71,1.19-4.43,1.96-8.88,2.3-13.36.11-1.33-.01-2.44-.36-3.31-.08-.19-.2-.35-.36-.47-.59-.43-1.21-.47-1.88-.13-3.91,2.06-7.74,4.62-11.49,7.67-6.44,5.25-11.45,12.72-12.68,21.21-.16,2.1-.4,4.17-.69,6.24-.04.32-.18.6-.38.85-.18.14-.37.18-.55.13l.88-7.6-.13-25.12c-.25-3.42.48-6.22,2.2-8.4,2.03-1.35,3.27-2.23,3.74-2.63,6.33-5.42,9.45-12.33,9.35-20.73-.05-4.55-.66-8.62-1.83-12.21-1.43-4.39-2.54-7.65-3.35-9.79-.37-.98-.99-1.35-1.86-1.11-.23.06-.43.21-.58.4-5.36,7.18-10.65,14.91-12.38,23.83-.39,2-.57,4.21-.54,6.64,0,.08-.06.16-.14.17-.08.02-.16-.03-.19-.11l-3.62-10.68c-.02-.07-.04-.14-.04-.21-.16-1.23-.03-2.42.38-3.56,2-5.53,1.84-12.29.53-17.77-1.74-7.28-5.4-12.71-10.26-18.58-2.26-2.73-4.1-4.72-5.55-5.96-.6-.52-1.5-.45-2.02.14-.06.06-.14.35-.28.86-.54,2.07-1.1,4.15-1.71,6.23-.07.26-.1.53-.09.79.03.79-.13,1.51-.48,2.16-.11.2-.17.43-.18.65,0,.07-.07.37-.2.88-.26,1.02-.4,2.24-.42,3.67-.03,1.62-.59,3.61-.46,5.32.5,6.16,1.76,11.13,3.78,14.91.14.27,1.04,1.5,2.7,3.7,2.47,3.29,5.85,5.24,9.62,6.58.33.11.58.38.67.72,1.27,4.44,1.95,6.82,2.04,7.14,2.56,8.35,3.92,16.95,4.95,26.06.26,2.3.39,4.6.39,6.89,0,.13-.16.2-.26.09-.77-.85-1.23-1.85-1.38-3.02-.35-2.66-.54-4.25-.57-4.77-.36-6.64-4.85-14-9.35-17.86-5.3-4.53-11.92-7.82-19.84-9.88-.23-.06-.48-.03-.69.1-.97.59-1.28,1.5-.93,2.73.44,1.55.96,3.56,1.55,6.03,1.59,6.61,5.04,14.38,10.02,19.06,2.76,2.6,6.21,4.78,10.36,6.53,2.27.97,5.92.14,7.48,2.51,5.27,7.94,3.24,17.94,2.5,26.68-.14,1.59-.68,3.63-.53,5.16.02.18-.03.36-.13.5-.28.41-.45,1.18-.49,2.29,0,.04-.01.09-.02.13l-1.77,7.59c-.04.2-.31.23-.4.04-.5-1.03-.64-2.54-.41-3.79,1.15-6.13,1.22-11.81-1.37-17.51-3.98-8.74-10.68-13.72-19.46-18.56-.79-.71-1.63-.36-2.54,1.04l2.01,16.35c.31,3.84,2.46,7.26,4.45,10.8.8,1.42,1.81,2.74,3.02,3.99,1.96,2.01,3.15,3.14,3.59,3.4,1.84,1.08,3.68,1.97,5.5,2.68,3.36,1.3,2.46,10.95,1.82,13.6,0,.01-.01.01-.02,0,0-.01,0-.03,0-.06.07-.37.11-.66.09-.65-.02,0-.09.3-.16.67-.25,1.29-.39,1.98-.42,2.08-1.53,4.87-3.24,9.53-5.11,13.98-.1.25-.46.22-.53-.04-.62-2.29-.59-4.48.1-6.6.06-.19.1-.38.11-.57.2-3.53-.33-7-1.59-10.43-2.71-7.38-10.9-13.25-18.05-16.05-.14-.06-.29-.09-.45-.09-1.74-.09-2.1,1.15-1.98,2.77.3,3.92.95,7.79,1.95,11.6.24.91.54,1.76.9,2.56,1.07,2.37,1.6,4.02,2.96,6.09,2.65,4.04,6.31,6.92,10.98,8.64,1.01.36,1.55,1.12,1.62,2.29.22,3.77.24,6.24.06,7.39-.03.21-.08.4-.15.6-.52,1.4-.93,2.4-1.25,2.98-4.27,7.73-8.95,14.71-14.03,20.92-2.12,2.59-4.61,5.27-7.48,8.05-.43.38-.85.62-1.24.71-.15.04-.29.12-.4.24l-1.36,1.54c-2.51,1.93-4.94,3.88-7.31,5.84-2.86,2.37-5.32,4.28-7.37,5.75-2.69,1.93-5.4,3.83-8.11,5.69l-14.96,8.74c-11.55,5.73-23.44,10.58-35.67,14.57-.05.02-.08.07-.08.12.01.06.06.09.11.09,1.15-.02,2.32-.14,3.51-.38,8.81-1.74,17.27-4.58,25.37-8.5,6.72-2.9,13.22-6.33,19.52-10.3l6.69-4.36,2.56-.36c5.57-2.66,10.7-5.87,15.37-9.63,6.18-4.97,11.84-10.49,16.97-16.55,1.3-1.53,2.23-3.17,3.25-4.32,1.69-1.91,3.31-4.07,4.83-6.5,3.61-5.75,6.55-10.83,8.82-15.25.82-1.59,1.27-2.59,1.33-2.98.11-.56.26-.99.47-1.27.16-.23.33-.53.48-.9,1.2-2.81,1.9-4.48,2.09-5.03,1.41-3.92,3.53-6.07,6.81-8.29.18-.12.38-.2.59-.24,2.92-.47,6.65-.33,9.73-1.17,5.9-1.61,10.84-4.75,14.83-9.42,2.82-3.3,5.16-6.67,7.01-10.11.88-1.62-.5-2.33-1.95-2.46Z"/>
    <path d="M449.93,318.13c.06.11.22.06.22-.06v-10.93c0-.55-.37-1.03-.9-1.17l-1.54-.41c-.57-.15-1.11.3-1.07.88l.58,7.96c.03.38.21.73.5.98.89.77,1.63,1.69,2.21,2.75Z"/>
    <path d="M151.28,306.74c-.18-.2-.3-.29-.36-.28-.42.07-.67.33-.75.8-.6,3.29-.74,6.6-.44,9.93.04.44.48.73.91.58l1.99-.72c.24-3.85.31-6.43.21-7.75-.08-1.04-.6-1.89-1.55-2.56Z"/>
    <path d="M151.8,343.95l.37,5.05c.03.33.32.58.65.55.14-.02.25-.03.3-.05.1-.03.17-.11.18-.21.25-2.15-.19-3.95-1.3-5.41-.07-.09-.21-.04-.21.08Z"/>
    <path d="M464.14,366.57l-4.5,5.73c-7.6,15.88-17.6,30.59-29.92,43.19-2.27,2.19-4.55,4.41-6.82,6.65-2.25,2.22-6.66,5.79-13.22,10.71-15.87,11.43-32.93,20.61-51.19,27.55l-8.38,3.36c-.23.09-.35.31-.3.54v.02c.06.25.29.4.52.35l7.87-1.7c7.31-1.76,13.15-3.99,20.68-6.97,2.59-1.03,5.08-2.14,7.48-3.34,1.74-.87,4.15-2.14,7.25-3.82,1.78-.96,3.54-1.96,5.3-3,3.12-1.91,6.2-3.87,9.25-5.91,1.69-1.12,2.79-1.89,3.3-2.32,2.57-2.13,4.67-3.19,7.22-5.48.79-.7,2.15-1.76,4.09-3.15.02-.01.04-.03.06-.04l10.63-9.84c.07-.07.13-.14.19-.21l1.35-1.8c.12-.17.26-.32.42-.45,1.66-1.47,3.14-3.1,4.46-4.87l1.51-1.71c9.62-11.72,17.04-24.72,22.26-39,.8-1.39,1.28-2.76,1.44-4.09.06-.52-.6-.8-.93-.38Z"/>
    <path d="M398.96,423.91c-.55.46-1.03,1.02-1.43,1.69-.06.09.03.21.14.18.81-.27,1.61-.69,2.4-1.28,1.96-1.44,3.61-2.78,4.94-4.02.76-.7,1.51-1.42,2.25-2.17,4.21-4.27,7.92-8.35,11.13-12.23,2.67-3.24,6.26-8.53,10.78-15.86,1.86-3.03,3.6-6.88,5.63-11.09.43-.91.68-1.77.73-2.59.02-.26-.11-.57-.4-.9-.18-.33-.42-.55-.72-.65.03-.14-.01-.26-.12-.35-.18-.14-.45-.08-.55.13-7.75,17.17-18.34,32.42-31.75,45.75l-3.03,3.39Z"/>
    <path d="M254.85,453.85l-9.79-3.91c-4.89-2.63-9.34-4.86-13.38-6.69-1.47-.66-3.25-1.33-5.36-2.01-6.87-3.87-13.07-7.97-18.58-12.31-10.59-8.35-19.64-18.34-27.13-29.97-.58-.89-1.3-1.89-2.15-2.99-.77-1-1.49-2-2.15-3,1.28-3.47,1.81-6.43,1.61-8.91-.35-4.2-1.79-9.22-4.32-15.05-.08-.18-.2-.33-.34-.45-1.02-.85-1.96-.72-2.81.38-1.3,1.66-3.95,4.99-5.19,7.35-3.13,5.94-3.51,12.17-1.13,18.72.04.09,0,.2-.09.25l-.19.11s-.09,0-.12-.04l-5.47-9.86c-.11-.21-.2-.43-.25-.66-.55-2.3-.76-4.77-.65-7.4,0-.18.09-.35.23-.47,2.2-1.83,4.07-4.24,5.59-7.21,2.6-5.09,2.29-11.48.77-16.66-.71-2.4-2.56-5.34-3.42-7.85-.83-2.4-2.52-1.4-3.61.2-1.16,1.69-2.29,3.2-3.36,4.51-.15.18-.25.43-.31.76-.02.11-.06.23-.13.33-3.14,4.68-4.34,9.87-3.58,15.57,0,.02,0,.03-.03.04l-.16.04c-.09.02-.18-.03-.21-.13-2.69-8.66-4.77-17.46-6.21-26.4-.16-.99-.09-2.08-.14-3.12l-.06-5.24c.22-2.19,1.22-4,2.98-5.43.52-.42,1.29-.15,1.45.5.64,2.66,1.72,4.89,3.24,6.66,2.29,2.67,3.95,4.32,4.99,4.95,4.93,2.99,10.62,4.11,17.06,3.36.45-.06.73-.31.83-.77.08-.39-.01-.86-.28-1.42l-1.66-4.53c-1.45-3.84-3.68-7.13-6.68-9.86-3.92-3.56-8.49-4.92-13.73-4.1-.2.03-.38.08-.55.16-2.6,1.11-5.54,1.37-7.85,3.58-.14.14-.39.04-.4-.16-.11-6.2.52-12.33,1.91-18.38,1.23-3.78,2.71-6.48,6.44-7.8.21-.08.45.03.55.24,1.74,3.92,4.2,7.1,7.35,9.53,2.9,2.22,6.23,3.71,9.99,4.46,3.51.7,7.16.89,10.96.59.65-.05,1.13-.63,1.05-1.28-.08-.7-.33-1.5-.74-2.42-1.06-2.4-2.61-5.11-4.64-8.15-4.02-5.99-10.68-9.5-18-8.34-2.78.43-5.66,1.4-8.63,2.91l-2.93,1.19c1.54-6.23,3.45-12.24,5.72-18.04.84-2.13,1.17-3.83,1.81-5.79.02-.06-.05-.1-.09-.06-4.89,5.23-8.13,11.29-9.75,18.18-.01.06-.07.1-.13.09l-.16-.03c-.17-.02-.28-.18-.26-.34,1.27-8.46-.99-15.98-6.09-22.93-2.85-3.88-5.59-7.4-8.67-9.33-.54-.34-1.25-.11-1.5.47-1.35,3.12-2.35,6.26-3.02,9.44-1.98,5.92-2.05,11.8-.23,17.63,2.15,7.19,6.2,12.78,12.16,16.78.33.22.57.55.67.92,1.61,5.58.96,10.59.3,17.18-.54,5.39-.18,12.11,1.1,20.16-.99-.54-1.57-1.37-1.76-2.49-.62-3.76-.96-5.83-1.05-6.2-.66-2.99-2.76-6.19-3.9-8.18-.49-.86-1.11-1.65-1.83-2.34-1.57-1.51-3.31-3.61-5.46-4.99-6.13-3.92-13.06-5.48-20.81-4.71-1.72.17-2.06.91-1.69,2.51.08.35,1.23,2.79,3.47,7.34,2.37,4.82,5.72,9.22,10.06,13.2,3.08,2.83,7.24,4.82,12.5,5.97,1.68.37,4.02.23,5.51.36.64.03,1.22.37,1.57.91l3.51,5.52c.19.29.32.61.4.95.22.89.89,3.63,2.01,8.19.4,1.65,1.77,5.65,4.09,12,1.51,4.11,3.86,7.79,5.56,11.8.07.16-.08.33-.25.3-.19-.03-.5-.35-.92-.96-1.74-2.47-3.02-5.93-5.25-8.47-2.47-2.82-5.47-5.12-9-6.89-5.99-3.02-12.99-3.2-19.26-1.2-2.05.65-1.73,2.2-.54,3.59,2.21,2.6,4.45,6.31,6.86,8.74,3.55,3.59,8.57,7.51,13.52,8.32,3.81.62,7.54.6,11.18-.08.71-.13,1.45.03,2.03.45,1.96,1.4,3.75,3.15,5.38,5.24.01.18.11.3.3.34,1.83,2.5,3.58,5.05,5.27,7.65,3.32,5.12,6.53,8.54,9.94,12.82-.18.31-.41.46-.68.45-4.17-6.38-10.56-9.65-17.39-11.03-4.38-.89-8.93-.28-13.64,1.81-1.54.68-7.85,3.35-4.73,5.79,2.05,1.61,4.65,3.39,7.78,5.36,2.13,1.33,5.05,2.57,8.76,3.72,2.74.85,6.07,1.01,10,.47.93-.13,2.67-.66,5.23-1.61,1.74-.64,2.99-.91,3.76-.82,4.23.53,7.86,3.87,10.85,6.83,2.63,2.61,5.36,5.11,8.2,7.49,4.95,4.09,10.07,7.93,15.37,11.53,16.92,11.38,35.79,19.38,56.08,22.59.47.08.86.06,1.16-.04.25-.08.26-.43.01-.53-4.53-1.68-10.36-3.93-17.48-6.75-9.84-3.9-19.6-8.84-29.3-14.81-8.89-5.47-17.15-11.75-24.8-18.85-5.89-5.5-11.28-11.31-16.19-17.44-.26-.32-.43-.7-.5-1.1l-.57-3.02c-.03-.16-.01-.33.05-.48.25-.58.55-1.01.92-1.31,1.74-1.38,3.26-3.88,4.5-5.8.03,2.15.74,4.32,2.12,6.52,2.6,4.16,4.66,7.23,6.19,9.22,8,10.42,17.51,19.35,28.52,26.79.04.03.07.05.09.08.01.02.02.03.03.05,0,.06.06.12.13.16l13.92,8.44,9.34,4.53c1.96.97,3.95,1.98,5.98,2.69,4.3,1.5,7.65,2.61,10.06,3.34,2.54.76,7.34,1.86,14.41,3.3,2.1.43,4.15.71,6.16.83.05,0,.09-.03.11-.08,0-.05-.02-.1-.07-.11-6.16-1.91-11.66-2.96-18.2-5.66ZM130.47,371.8c-.02-.06.02-.11.08-.11-.06,0-.09.06-.08.11Z"/>
  </g>
  <g>
    <path d="M196.28,476.88c-1.67-.04-3.68.04-6.02.25-1.4-.24-2.76-.2-4.07.13-.43.06-.72.38-.84.94-.13.59.28,1.15.88,1.21,1.76.17,2.68,1.33,2.74,3.47.03,1.06.05,10.69.06,28.86,0,.28-.33.42-.53.21l-5.22-5.46-5.35-5.58-19.07-20.03-3.08-3.22c-.3-.32-.72-.5-1.16-.51-1.83-.04-3.71-.1-5.67-.17-.2,0-.42.03-.65.11-.34.12-.47.26-.39.43-.41.47-.45.91-.12,1.31.08.09.18.17.28.21l2.21.88c.22.09.4.25.53.44.35.49.54,1.39.55,2.68.12,12.29.08,24.46-.1,36.51-.03,1.79-1.39,2.13-2.84,2.62-.16.06-.29.18-.35.33-.03.07-.05.14-.06.21-.08.15-.12.32-.13.5-.22.47-.16.87.16,1.2.09.09.23.14.37.14h10.92c.21,0,.42-.1.54-.28.26-.38.29-.87.08-1.48-.26-.69-1.08-.96-2.47-.8-.93-.84-1.4-1.92-1.4-3.24-.06-9.74-.05-19.46.01-29.16,0-.26.31-.38.48-.2,2.57,2.66,4.82,5.08,6.75,7.25,1.77,1.99,3.81,4.15,6.14,6.5,2.57,2.59,4.58,4.75,6.02,6.45.4.48,1.05.91,1.5,1.38,7.21,7.52,11.81,12.16,13.79,13.92.54.47,1.26.54,2.17.19.18-.07.31-.23.34-.42l.2-1.5-.06-5.57.09-13.28.09-9.68.07-13.08c0-.84.6-1.57,1.43-1.72,1.61-.3,2.26-.95,1.96-1.94.08-.67-.19-1.02-.79-1.04Z"/>
    <path d="M471.57,477.24c-.75-.31-1.33-.31-1.76-.02-3.7-.28-7.33-.29-10.93-.04-.75.05-1.24.81-1,1.53.12.35.38.59.81.69.91.24,1.4.37,1.45.38.52.17.87.65.88,1.2.08,13.49.06,26.62-.06,39.4,0,.45-.37.9-1.1,1.36-.63.12-1.16.33-1.59.62-.54.57-.68,1.16-.42,1.78.11.27.38.45.67.45h13.02c.06,0,.12-.02.17-.06.29-.23.4-.71.33-1.46-.04-.31-.66-.54-1.86-.67-.88-1.03-1.32-2.23-1.32-3.63-.04-13.49,0-25.89.13-37.19.01-.88.57-1.65,1.4-1.93l1.39-.47c.2-.07.36-.23.43-.43.22-.69.01-1.2-.63-1.52Z"/>
    <path d="M451.55,513.68c-.43.91-.89,1.8-1.39,2.66-.94,1.61-2.29,2.84-4.05,3.68-1.85.62-3.07.98-3.64,1.06-1.4.21-4.05.2-7.95-.02-.15,0-.3-.03-.45-.08l-2.36-.63c-3.65-1.49-6.56-4.02-8.74-7.6-3.09-5.06-3.7-10.37-3.05-16.07.76-6.63,5.14-14.38,12.2-16.05,7.2-1.7,15.46-.04,18.21,7.55.18.5.69.79,1.21.7.52-.09.89-.55.89-1.08-.03-2.84-.11-5.47-.23-7.91-.04-.82-.38-1.25-1.02-1.28-.57-.03-.93-.06-1.09-.11-2.42-.6-4.87-1.15-7.34-1.66-5.88-.71-12.42-.77-17.82,2.1-8.73,4.32-13.58,12.58-13.55,22.38.01,5.17,1.5,11.14,5.38,14.79.14.13.24.3.3.48.32,1.16,2.51,3.01,3.35,3.53.4.25,1.37.84,2.9,1.79,5.45,3.35,11.58,3.7,17.95,3.29,3.19-.21,6.5-1.04,9.93-2.49.68-.29,1.16-.92,1.26-1.66l.84-6.38c.03-.18-.02-.37-.12-.52-.45-.66-.98-.82-1.61-.47Z"/>
    <path d="M322.72,503.41c-.61-1.17-2.64-.82-3.65-.55h-1.18s-2.46.14-2.46.14c-.11,0-.23-.02-.33-.06-.43-.2-.93-.2-1.46.01-.22.05-.38.04-.48-.03-1.15-.17-2.52-.02-4.12.45-.28.06-.35.3-.23.73.06.23.23.41.45.49l1.68.65c.81.31,1.35,1.1,1.35,1.96v11.55c0,.51-.25.99-.67,1.28-.82.56-1.82.91-3.01,1.04-4.68.41-7.94.39-9.77-.07-1.14-.28-2.3-.54-3.46-.76-8.45-3.92-12.75-10.71-12.91-20.37-.13-8.37,3.25-16.38,10.77-20.16,5.06-2.54,10.4-2.8,16.01-.78,4.12,1.48,6.75,4.12,7.89,7.93.28.93,1.59.98,2.1.08.13-.23.18-.59.14-1.05-.25-2.81-.35-5.7-.28-8.66.01-.65-.27-.91-.86-.77-2.47-.36-4.92-.82-7.37-1.37-3.39-.77-5.85-1.18-7.37-1.24-6.95-.28-13.38,1.49-19.31,5.29-.08.05-.13.13-.17.22-.03.09-.08.18-.14.25-7.76,5.74-10.99,15.28-9.73,24.65,1.52,11.41,10.43,18.73,21.41,20.72,3.24.59,8.9.47,12.14.16,4.09-.41,7.97-1.42,11.67-3.02.28-.12.45-.4.45-.69v-14.4c0-.59.34-1.11.88-1.35,1.07-.48,1.81-.84,2.22-1.1.3-.18.4-.56.22-.82-.09-.13-.23-.25-.42-.34Z"/>
    <path d="M247.61,502.98c-1.12-.38-2.08-.55-2.86-.5-2.78.16-5.56.23-8.34.21-.89,0-1.74.15-2.55.48-.23-.01-.41.05-.54.18-.46.45-.2,1.25.46,1.37,1.54.31,3.32.69,3.17,2.73,0,.05-.02,3.98-.04,11.8,0,.54-.27.89-.79,1.05-1.23.31-2.38.67-3.62.77-3.81.3-7.55.03-11.21-.8l-4.56-2.76c-5.95-5.23-7.86-12.17-7.06-19.98,1.15-11.24,8.69-18.58,20.35-17.39,5.12.52,9.98,3.09,11.31,8.41.12.49.63.77,1.11.62,1.29-.41,1.09-1.25,1.03-2.34-.14-2.71-.33-5.23-.55-7.55-.03-.28-.23-.5-.5-.57l-5.51-1.2c-2.78-.65-6.3-.96-10.56-.93-6.99.04-12.89,2.24-17.7,6.59-4.53,4.46-7.03,9.89-7.51,16.29-.48,6.47,1.32,12.06,5.4,16.8,1.18,1.37,3.01,3.39,4.62,4.38,3.74,2.3,7.28,3.72,10.63,4.26,6.6,1.05,13.53.42,20.79-1.91.89-.28,2.08-.61,2.09-1.69.04-4.11.08-8.76.12-13.94.02-1.81,1.27-2.29,2.74-2.52.21-.04.4-.17.49-.36.27-.56.14-1.05-.4-1.45Z"/>
    <path d="M368.07,521.53c-.45-.62-.74-1.08-.86-1.37-7.31-17.24-13.36-31.65-18.12-43.24-.28-.7-.84-1.02-1.66-.97-.44.03-.82.3-.98.71-4.66,11.77-10.36,25.73-17.09,41.88-.85,2.05-2.04,3.2-3.56,3.47-1.2.21-1.66,1.22-1.21,2.15.13.26.38.42.67.42h10.29c.47,0,.86-.38.86-.85v-.57c0-.32-.32-.54-.62-.43-1.3.5-2.51.52-3.63.07-.8-.45-.94-1.23-.43-2.36.13-.27.53-.23.59.06l.14.65c.35.72.89,1.1,1.61,1.13.11,0,.18-.13.09-.21-.74-.72-.87-1.62-.39-2.71.41-.94,2.07-4.8,4.97-11.6.06-.13.19-.22.33-.22h13.97c.16,0,.31.09.39.24,2.08,4.08,3.08,7.16,5.21,13.02.06.16.01.35-.13.46l-1.73,1.4c-.37.46-.45.96-.25,1.51.09.25.33.42.59.42h13.47c.26,0,.48-.16.57-.4.09-.24.11-.55.08-.95.45-1.17-.6-1.74-3.18-1.72ZM345.93,489.29s.03-.05.04-.07c.15-.14.3-.1.43.12l5.74,14.21c.08.21-.07.43-.29.43h-11.42c-.25,0-.42-.25-.32-.48l2.28-5.48,3.53-8.74Z"/>
    <path d="M518.67,521.52c-.8-.15-1.4-.22-1.79-.21-.02-.46-.17-.9-.45-1.32-.39-.6-.63-.99-.71-1.18-5.96-13.99-11.9-27.98-17.82-41.98-.28-.68-.63-.94-1.04-.77-.18,0-.37,0-.55,0-.18-.06-.4.01-.64.21-.07.06-.13.13-.16.21-4.05,9.57-8.03,19.16-11.94,28.78-2.66,6.53-4.62,11.2-5.88,13.99-.46,1.01-1.13,1.78-2.03,2.32l-.99.36c-.52.01-.99.14-1.39.39-.29.3-.33.59-.13.88-.17.46-.19.81-.07,1.04.11.21.42.32.94.32,4.38,0,7.64-.01,9.78,0,.58,0,.88,0,.9-.01.85-.5.76-1.76-.16-2.13-1.25-.5-2.51-.93-1.91-2.62,1.15-3.23,2.64-7.2,4.48-11.9.08-.21.29-.36.52-.36h14.37c.23,0,.43.14.52.35l5.04,12.78c.15.38-.03.82-.4.99-1.07.48-1.55,1.23-1.46,2.22.04.43.42.76.85.75,4.07-.08,8.37-.1,12.89-.07.56,0,.95-.31,1.16-.95.2-1.11-.44-1.8-1.93-2.08ZM488.8,503.64l6.12-14.6c.06-.16.29-.15.35,0l5.7,14.77c.05.12-.04.26-.18.25l-11.82-.16c-.14,0-.23-.14-.18-.26Z"/>
    <path d="M416.7,522.18c-2.35-.62-4.74-.65-6.68-2.49l-12.94-17.07c-.17-.23-.08-.54.18-.64l1.41-.53c.14-.14.31-.22.49-.23.17-.09.27-.22.3-.39,1.15-.57,2.12-1.33,2.91-2.27,4.43-5.26,4.7-10.7.84-16.32-2.3-2.52-4.98-4.14-8.02-4.83-1.38-.31-4.54-.45-9.47-.39-3.5.03-7,.03-10.51-.03-1.11-.02-1.89.07-2.35.26-.26.11-.35.26-.28.46-.25.45-.28.86-.07,1.21.06.1.15.18.26.23l2.12.81c.21.08.36.25.42.47.3,1.14.45,2.12.46,2.95.03,14.04.04,25.85.03,35.44,0,1.18-.35,2.11-1.02,2.8-1.52.28-2.29.79-2.3,1.52-.04.65.13,1.12.5,1.39.08.06.18.09.29.09l13.01-.07c.3,0,.59-.18.72-.46.17-.31.03-.81-.42-1.51-.61-.42-1.45-.77-2.52-1.06-.41-.92-.62-2.05-.62-3.38-.02-4.3-.04-8.92-.04-13.87,0-.21.17-.38.38-.38h4.82c.07,0,.14.02.2.05.72.42,1.33,1.03,1.81,1.82,1.37,2.27,2.86,4.49,4.49,6.67,1.74,2.34,4.38,7.31,7.67,9.79,3.88,2.93,8.16,2.59,13.81,2.42.33-.01.62-.25.69-.57.06-.27.03-.67-.09-1.19.11-.35-.04-.58-.47-.69ZM383.36,500.35l.04-19.45c0-.23.18-.4.4-.41,5.51-.09,10.05-.42,13.08,5.02.1.18.18.37.22.57,1.53,6.79.57,14.45-8.1,14.43l-5.65-.16Z"/>
    <path d="M140.85,521.52c-1.23-1.44-.97-5.33-.98-6.64-.04-17.14,0-28.37.1-33.69.01-.6.4-1.14.96-1.35.41-.16.91-.37,1.5-.64.75-.35.88-.83.39-1.45-.01-.68-.48-.99-1.4-.95-2.01.1-4.03.21-6.05.33-1.79,0-3.58,0-5.38.03-.21,0-.35.12-.42.35-.52.21-.67.6-.43,1.18.07.18.22.33.41.4l1.66.64c.55.21.91.74.91,1.33l-.08,30.48c0,3.54-.08,6.53-.25,8.96-.02.25-.14.52-.38.83-1.63.42-2.4,1.11-2.32,2.05-.06.37,0,.67.16.91.14.21.42.32.82.32,4.25,0,8.5-.04,12.74-.08.67,0,.93-.49.75-1.46-.33-.98-1.24-1.49-2.73-1.54Z"/>
    <path d="M126.36,521.93c-1.02-.33-1.91-.47-2.68-.43-1.82-.65-3.46-1.69-4.92-3.1-5.03-4.88-9.97-9.83-14.83-14.88l-2.91-2.84-3.66-3.72c-.3-.31-.26-.81.09-1.06,1.16-.82,2.27-1.84,3.32-3.05.14-.16.3-.31.48-.45,1.16-.86,2.28-1.78,3.34-2.76,3.58-3.27,7.23-6.28,11.05-9.65,1.25-1.1,3.17-2.06,5.76-2.89.62-.2.72-.64.32-1.34-.22-.31-.54-.47-.96-.48-2.07-.06-5.75-.03-11.03.1-.26,0-.37.05-.33.14-.65.08-1.04.4-1.2.94-.07.26,0,.53.19.71.28.28.65.46,1.1.53.68.11.93.96.42,1.42l-15.93,14.47-4.66,4.24c-.22.2-.58.04-.57-.26.18-4.77.21-10.37.09-16.81-.03-1.04.37-2.64,1.42-2.86,1.45-.31,2.23-.81,2.32-1.49-.29-.86-.81-1.29-1.57-1.28-6.15.03-10.21.08-12.18.14-.21,0-.46.11-.74.3-.59.49-.69.99-.31,1.5.08.11.19.19.31.23l1.66.64c.65.25,1.09.88,1.1,1.59l.14,22.45c.07,5.82.05,11.63-.06,17.44-.02,1.03-.4,1.79-1.16,2.28-1.47.27-2.18.73-2.16,1.38-.12.43-.13.82-.03,1.15.06.2.25.33.45.34,4.47.08,8.95.08,13.42.01.89-.02,1.26-.54,1.01-1.37.09-1.49-1.61-1.17-2.51-1.26-.69-.52-1.05-1.18-1.06-1.98-.06-2.9-.06-7.94.02-15.14.02-1.66-.22-2.88,1.67-3.58.31-.11.66-.03.88.22,2.51,2.78,4.5,4.58,6.64,6.86,3.76,4.01,7.73,8.16,11.9,12.43,2.52,2.59,5.53,3.9,9.04,3.93,2.38.02,4.75,0,7.09-.09.75-.03,1.14-.38,1.17-1.08.25-.78-.05-1.3-.89-1.57Z"/>
  </g>
  <path d="M494.63,545.95l-2.79.55-39.47-.68c-.28,0-.5.22-.5.5v.29c0,.26.21.48.48.48l25.85.14c-1.84.12-3.63.31-5.36.57-1.48.22-2.69-.06-4.01.31-.19.06-.31.24-.29.43.02.2.19.35.38.35l6.69.15-23.58.31c-.6,0-1.1-.48-1.1-1.09v-2.11c0-.67.55-1.2,1.21-1.19l42.49.98h0Z"/>
  <path d="M491.84,546.51l.47.11c.18.04.21.29.04.37-.28.12-.6.19-.98.2l-13.18.06-25.85-.14c-.26,0-.48-.21-.48-.48v-.29c0-.28.23-.5.5-.5l39.47.68h0Z"/>
  <path d="M494.63,545.95l9.37.74-12.31.6-.31-.13c.37,0,.7-.08.98-.2.17-.08.14-.32-.04-.37l-.47-.11,2.79-.55h0Z"/>
  <path d="M150.12,546.32c-.06-.78-.72-1.38-1.5-1.37l-41.76.99-8.66.81-18.56.28c-.09,0-.16.08-.15.16l.02.21c0,.06.04.09.1.1l47.13,1.61,22.17.48c.77.02,1.4-.64,1.35-1.41l-.14-1.85Z"/>
  <path d="M504,546.7l3.75.15c-5.33.54-10.68.69-16.07.45l12.31-.6h0Z"/>
  <path d="M507.75,546.85l10.93.31c.06,0,.11.05.11.11s-.04.11-.11.11l-43.08,1.67-6.69-.15c-.2,0-.37-.15-.38-.35-.03-.2.1-.38.29-.43,1.32-.37,2.53-.09,4.01-.31,1.74-.26,3.53-.45,5.36-.57l13.18-.06.31.13c5.38.24,10.73.09,16.07-.45h0Z"/>
  <g>
    <path d="M308.21,538.65c-1.57-.19-2.05.84-1.44,3.08.07.25.3.42.55.42h3.8c.26,0,.47.21.47.47v13.43c0,.6.48,1.08,1.09,1.08h1.9c.58,0,1.05-.47,1.05-1.05v-13.55c0-.23.18-.41.41-.41h4.12c.25,0,.47-.16.54-.4.26-.86.18-1.92-.25-3.18l-12.24.11Z"/>
    <path d="M172.05,539.86c-.37-.84-.89-1.26-1.57-1.26s-1.2.42-1.58,1.25c-2.47,5.46-4.9,10.88-7.3,16.26-.21.48.14,1.03.67,1.03h1.83c.65.02,1.25-.35,1.54-.94l1.48-3.05c.11-.23.35-.38.61-.38.24,0,1.14,0,2.71,0,1.56,0,2.46.01,2.7.01.26,0,.5.16.61.39l1.45,3.05c.28.59.88.96,1.53.96h1.83c.53,0,.89-.54.67-1.03-2.35-5.39-4.75-10.83-7.18-16.31ZM172,548.92c-.03.06-.07.09-.11.11l-2.69-.04c-.14-.09-.18-.2-.13-.31.22-.48.67-1.37,1.36-2.64.09-.17.35-.16.42.02l1.16,2.69c.03.06.02.12,0,.18Z"/>
    <path d="M220.68,538.64h-11.98c-.31,0-.57.07-.78.18-.23.12-.37.33-.4.62-.09.92-.11,1.62-.04,2.12.04.34.33.6.68.6h3.93c.16,0,.29.13.3.29l.05,9.41v4.14c-.01.61.48,1.11,1.1,1.11h1.88c.56,0,1.01-.45,1.01-1.01v-13.5c0-.25.21-.46.46-.46h4.03c.27,0,.5-.2.55-.46.13-.7.16-1.45.1-2.26-.03-.45-.32-.71-.87-.76Z"/>
    <path d="M274.49,538.88c-1.49-.45-3.14-.52-4.92-.21h-3.05c-.47.02-.84.39-.84.86v16.85c0,.39.31.72.7.74,2.18.12,4.51.07,6.98-.16,4.07-.38,6.69-2.17,7.86-5.34,2.12-5.82-.62-11.17-6.72-12.73ZM269.42,553.38l.2-10.71c0-.18.14-.33.33-.34,1.7-.1,2.79-.1,3.27,0,3,.61,4.52,2.47,4.56,5.57.03,2.15-.86,3.84-2.68,5.09-1.69.59-3.58.72-5.68.4Z"/>
    <path d="M334.54,539.85c-.37-.84-.89-1.25-1.57-1.26-.67,0-1.2.41-1.57,1.24-2.47,5.45-4.91,10.86-7.31,16.22-.21.48.14,1.03.67,1.03l1.82.02c.65,0,1.25-.37,1.54-.95l1.48-3.03c.11-.23.35-.38.61-.38.24,0,1.14,0,2.7.01,1.56,0,2.46.01,2.69.02.26,0,.5.15.61.39l1.45,3.05c.28.59.88.96,1.52.96h1.83c.52,0,.88-.54.67-1.02-2.34-5.39-4.72-10.82-7.14-16.29ZM331.44,549.18c-.07-.2-.08-.54.03-.74.48-.89.89-1.79,1.2-2.69.06-.2.34-.2.41,0l1.2,3.16-2.84.27Z"/>
    <path d="M199.63,538.8c-.62-.27-1.25-.3-1.89-.08-.65-.01-.96.33-.96,1.03.06,4.77.03,8.49-.09,11.17-.03.7-.43,1.43-1.19,2.18-.16.26-.38.4-.64.42-1.56.08-3-.1-4.31-.54-.14-.28-.34-.45-.59-.51l-.42-1.53c-.06-.23-.09-.46-.09-.7-.04-5.36-.09-8.88-.16-10.56-.03-.67-.48-.98-1.38-.92-.52-.14-.98-.14-1.4.03-.67-.06-1.01.2-1.03.77-.11,3.71-.16,6.31-.16,7.8,0,5.09.65,9.05,5.94,9.8,4.88.69,9.25-1.2,9.45-6.76.07-1.99.06-5.55-.04-10.7-.01-.67-.35-.98-1.03-.91Z"/>
    <path d="M299.39,553.46c-.43-.11-.87-.13-1.32-.04-.61-.17-1.16-.15-1.66.06-.97-.2-1.93-.21-2.9-.04-.2-.2-.29-.37-.3-.51-.04-1.4-.04-2.55,0-3.46,0-.2.17-.36.37-.36h5.46c.52,0,.94-.42.94-.94v-1.45c0-.52-.43-.95-.96-.95h-5.12c-.38,0-.68-.3-.68-.67v-2.57c0-.2.16-.36.36-.36h6.5c.23,0,.42-.15.49-.37.13-.41.14-1.11.05-2.1-.06-.59-.32-.93-.78-.99l-.99-.23c-1.56-.09-3.12-.16-4.68-.19-.14,0-.32.04-.54.15-.18.08-.37.11-.57.09-1.13-.09-2.07-.05-2.83.14-.61.16-.92.51-.92,1.07,0,1.35.01,6.91.03,16.68,0,.38.31.68.69.68h10.14c.31,0,.57-.22.63-.52.17-1,.36-3.39-1.42-3.12Z"/>
    <path d="M351.2,538.83c-.57-.38-1.22-.38-1.95-.02-.48.05-.74.35-.75.91-.06,1.95-.11,7.35-.17,16.22,0,.65.53,1.19,1.18,1.19h1.67c.64,0,1.16-.52,1.17-1.17.02-5.26,0-10.57-.03-15.95,0-.91-.38-1.3-1.12-1.18Z"/>
    <path d="M399.15,553.34l-4.95.36c-.46.03-.85-.33-.84-.8.08-4.35.1-8.71.07-13.08,0-.41-.08-.71-.24-.89-.22-.26-.5-.25-.84.03-.59.19-1.04.22-1.35.1-.28-.14-.5-.19-.64-.14-.37.11-.55.36-.55.76.06,7.96.07,13.55.05,16.77,0,.3.25.55.55.55h9.12c.56,0,1.02-.46,1.02-1.02v-1.34c0-.75-.64-1.35-1.38-1.29Z"/>
    <path d="M416.79,553.39c-.63-.1-1.27-.09-1.93.04-.4-.15-.65-.12-.77.09l-2.91-.06c-.22,0-.39-.19-.38-.41.17-4.34.2-8.67.1-13.02-.02-1.02-.38-1.43-1.08-1.22-.84.2-1.31.25-1.41.14-.43-.26-.76-.28-.98-.04-.25.26-.37.6-.37,1.01-.02,4.19,0,9.58.05,16.17,0,.52.43.94.94.94h9.31c.25,0,.47-.18.5-.43.13-.98.38-3.11-1.08-3.19Z"/>
    <path d="M370.46,553.46l-5.75.08c.08-2.36.14-6.7.17-13.04,0-1.04-.37-1.6-1.11-1.67l-2.23.03c-.33.09-.5.42-.51,1.01-.04,5.27,0,10.73.09,16.41,0,.43.36.77.79.77h8.96c.43,0,.8-.33.84-.76.22-1.99-.2-2.93-1.25-2.83Z"/>
    <path d="M240.86,539.25c-4.04-1.93-8.88-.93-11.76,2.42-.03.03-.06.07-.09.1-.67.8-1.2,1.7-1.57,2.67-1.01,2.61-.81,5.51.53,7.97,1.13,2.08,3,3.68,5.26,4.5,2.53.93,5.33.79,7.75-.38,4.22-2.04,6.35-6.75,5.07-11.21-.76-2.66-2.65-4.87-5.18-6.07ZM237.34,542.14c2.33.3,3.82,1.54,4.47,3.7.6,2.27.22,4.36-1.13,6.3-1.89,1.27-4.27,1.52-7.12.74l-1.4-1.01c-2.76-4.26-.74-10.49,5.18-9.73Z"/>
    <path d="M439.3,552.8c-.34-.65-.76-1.08-1.27-1.29-.18-.08-.39-.04-.53.09l-1.3,1.24c-2.88,1.16-5.52.81-7.92-1.06-1.34-2.23-1.47-4.5-.39-6.8.57-1.2,1.35-2,2.35-2.39,2.78-1.07,5.15-.72,7.09,1.06.16.14.39.17.57.06.32-.2.6-.48.85-.85.93-.9,1.04-1.71.35-2.45-1.95-1.59-4.16-2.34-6.63-2.25-2.37.08-4.36.93-5.95,2.54-.89.7-1.55,1.4-2,2.13-4.68,8.43,2.17,16.46,11.22,14.13,1.78-.46,3.05-1.33,3.79-2.64.35-.61.26-1.12-.26-1.52Z"/>
  </g>
</svg>